<mxfile host="app.diagrams.net" modified="2023-09-20T14:06:58.690Z" agent="Mozilla/5.0 (Windows NT 10.0; Win64; x64) AppleWebKit/537.36 (KHTML, like Gecko) Chrome/116.0.0.0 Safari/537.36" version="21.7.5" etag="f20H4l7ZKcx2iU35zNs8" type="github">
  <diagram name="Page-1" id="ZQo-7t_pr3U0tpa_dRdN">
    <mxGraphModel>
      <root>
        <mxCell id="0" />
        <mxCell id="1" parent="0" />
      </root>
    </mxGraphModel>
  </diagram>
</mxfile>
